<?xml version="1.0" standalone="no"?>
<!DOCTYPE svg PUBLIC "-//W3C//DTD SVG 20010904//EN"
 "http://www.w3.org/TR/2001/REC-SVG-20010904/DTD/svg10.dtd">
<svg version="1.0" xmlns="http://www.w3.org/2000/svg"
 width="389.000000pt" height="389.000000pt" viewBox="0 0 389.000000 389.000000"
 preserveAspectRatio="xMidYMid meet">

<g transform="translate(0.000000,389.000000) scale(0.100000,-0.100000)"
fill="#000000" stroke="none">
<path d="M480 3457 c-13 -7 -30 -24 -37 -37 -10 -20 -12 -324 -10 -1472 l2
-1447 23 -23 23 -23 1454 0 1454 0 23 23 23 23 0 1459 0 1459 -23 23 -23 23
-1442 2 c-1144 2 -1447 0 -1467 -10z m1255 -312 l25 -24 0 -1011 0 -1011 -25
-24 -24 -25 -476 0 -476 0 -24 25 -25 24 0 1011 0 1011 25 24 24 25 476 0 476
0 24 -25z m1380 0 l25 -24 0 -571 0 -571 -25 -24 -24 -25 -471 0 -471 0 -24
25 -25 24 0 571 0 571 25 24 24 25 471 0 471 0 24 -25z"/>
</g>
</svg>
